200 years after her death, Ellen Ripley is revived as a powerful human/Alien hybrid clone who must continue her war against the Aliens.

Director:
Jean-Pierre Jeunet
Writers:
Dan O'Bannon (characters), Ronald Shusett (characters), and 1 more credit »
Stars:
Sigourney Weaver, Winona Ryder and Dominique Pinon 

media info :

General
Complete name                    : E:\torrent2\Alien 4.1997.BluRayrip.mkv.1080p.AVC.DTS-5.1-ACB-Team\Alien 4.1997.BluRayrip.mkv.1080p.AVC.DTS-5.1-ACB-Team.mkv
Format                           : Matroska
File size                        : 11.4 GiB
Duration                         : 1h 48mn
Overall bit rate                 : 15.0 Mbps
Movie name                       : movie
Encoded date                     : UTC 2011-09-04 14:12:03
Writing application              : mkvmerge v3.2.0 ('Beginnings') built on Feb 12 2010 16:46:17
Writing library                  : libebml v0.7.9 + libmatroska v0.8.1

Video
ID                               : 1
Format                           : AVC
Format/Info                      : Advanced Video Codec
Format profile                   : High@L4.1
Format settings, CABAC           : Yes
Format settings, ReFrames        : 2 frames
Format settings, GOP             : M=4, N=16
Muxing mode                      : Container profile=Unknown@0.0
Codec ID                         : V_MPEG4/ISO/AVC
Duration                         : 1h 48mn
Bit rate mode                    : Variable
Bit rate                         : 13.7 Mbps
Maximum bit rate                 : 35.0 Mbps
Width                            : 1 920 pixels
Height                           : 1 080 pixels
Display aspect ratio             : 16:9
Frame rate                       : 23.976 fps
Color space                      : YUV
Chroma subsampling               : 4:2:0
Bit depth                        : 8 bits
Scan type                        : Progressive
Bits/(Pixel*Frame)               : 0.275
Stream size                      : 10.1 GiB (88%)
Writing library                  : x264 core 116 r2057 0ba8a9c
Encoding settings                : cabac=1 / ref=1 / deblock=1:0:0 / analyse=0x3:0x3 / me=dia / subme=1 / psy=1 / psy_rd=1.00:0.00 / mixed_ref=0 / me_range=16 / chroma_me=1 / trellis=0 / 8x8dct=1 / cqm=0 / deadzone=21,11 / fast_pskip=1 / chroma_qp_offset=0 / threads=3 / sliced_threads=0 / slices=4 / nr=0 / decimate=1 / interlaced=0 / bluray_compat=1 / constrained_intra=0 / bframes=3 / b_pyramid=0 / b_adapt=1 / b_bias=0 / direct=1 / weightb=1 / open_gop=0 / weightp=1 / keyint=24 / keyint_min=1 / scenecut=40 / intra_refresh=0 / rc_lookahead=0 / rc=abr / mbtree=0 / bitrate=13674 / ratetol=1.0 / qcomp=0.60 / qpmin=0 / qpmax=69 / qpstep=4 / vbv_maxrate=35000 / vbv_bufsize=30000 / nal_hrd=vbr / ip_ratio=1.10 / pb_ratio=1.10 / aq=1:1.00

Audio
ID                               : 2
Format                           : DTS
Format/Info                      : Digital Theater Systems
Codec ID                         : A_DTS
Duration                         : 1h 48mn
Bit rate mode                    : Constant
Bit rate                         : 1 510 Kbps
Channel(s)                       : 6 channels
Channel positions                : Front: L C R, Side: L R, LFE
Sampling rate                    : 48.0 KHz
Bit depth                        : 24 bits
Stream size                      : 1.15 GiB (10%)
Language                         : English

Text #1
ID                               : 3
Format                           : VobSub
Muxing mode                      : zlib
Codec ID                         : S_VOBSUB
Codec ID/Info                    : The same subtitle format used on DVDs
Language                         : English

Text #2
ID                               : 4
Format                           : VobSub
Muxing mode                      : zlib
Codec ID                         : S_VOBSUB
Codec ID/Info                    : The same subtitle format used on DVDs
Language                         : Portuguese

Text #3
ID                               : 5
Format                           : VobSub
Muxing mode                      : zlib
Codec ID                         : S_VOBSUB
Codec ID/Info                    : The same subtitle format used on DVDs
Language                         : Danish

Text #4
ID                               : 6
Format                           : VobSub
Muxing mode                      : zlib
Codec ID                         : S_VOBSUB
Codec ID/Info                    : The same subtitle format used on DVDs
Language                         : Finnish

Text #5
ID                               : 7
Format                           : VobSub
Muxing mode                      : zlib
Codec ID                         : S_VOBSUB
Codec ID/Info                    : The same subtitle format used on DVDs
Language                         : French

Text #6
ID                               : 8
Format                           : VobSub
Muxing mode                      : zlib
Codec ID                         : S_VOBSUB
Codec ID/Info                    : The same subtitle format used on DVDs
Language                         : German

Text #7
ID                               : 9
Format                           : VobSub
Muxing mode                      : zlib
Codec ID                         : S_VOBSUB
Codec ID/Info                    : The same subtitle format used on DVDs
Language                         : Spanish

Text #8
ID                               : 10
Format                           : VobSub
Muxing mode                      : zlib
Codec ID                         : S_VOBSUB
Codec ID/Info                    : The same subtitle format used on DVDs
Language                         : Dutch

Text #9
ID                               : 11
Format                           : VobSub
Muxing mode                      : zlib
Codec ID                         : S_VOBSUB
Codec ID/Info                    : The same subtitle format used on DVDs
Language                         : Norwegian

Text #10
ID                               : 12
Format                           : VobSub
Muxing mode                      : zlib
Codec ID                         : S_VOBSUB
Codec ID/Info                    : The same subtitle format used on DVDs
Language                         : Swedish

Menu
00:00:00.000                     : en:00:00:00.000
00:02:27.313                     : en:00:02:27.313
00:05:16.983                     : en:00:05:16.983
00:07:36.122                     : en:00:07:36.122
00:10:26.250                     : en:00:10:26.250
00:13:08.078                     : en:00:13:08.078
00:18:06.168                     : en:00:18:06.168
00:21:49.474                     : en:00:21:49.474
00:25:38.244                     : en:00:25:38.244
00:28:38.591                     : en:00:28:38.591
00:32:46.172                     : en:00:32:46.172
00:34:56.219                     : en:00:34:56.219
00:38:06.158                     : en:00:38:06.158
00:42:00.142                     : en:00:42:00.142
00:49:04.858                     : en:00:49:04.858
00:52:34.442                     : en:00:52:34.442
00:58:31.132                     : en:00:58:31.132
01:02:46.095                     : en:01:02:46.095
01:13:56.056                     : en:01:13:56.056
01:16:26.206                     : en:01:16:26.206
01:21:15.829                     : en:01:21:15.829
01:24:40.575                     : en:01:24:40.575
01:27:09.932                     : en:01:27:09.932
01:31:52.798                     : en:01:31:52.798
01:33:39.947                     : en:01:33:39.947
01:36:44.256                     : en:01:36:44.256
01:40:46.707                     : en:01:40:46.707
01:42:27.975                     : en:01:42:27.975

